<svg xmlns:osb="http://www.openswatchbook.org/uri/2009/osb" xmlns="http://www.w3.org/2000/svg" width="141.732" height="124.016"><defs><linearGradient osb:paint="solid"><stop offset="0" stop-color="#fff"/></linearGradient><clipPath><path d="M0 464h528v-464h-528v464z"/></clipPath><pattern patternUnits="userSpaceOnUse" width="51.273" height="51.275" patternTransform="matrix(.8 0 0 -.8 18.974 445.22)"><g fill="#1d1d1b"><path d="M48.773 37.525h-1.25v1.25c0 1.927-1.821 3.75-3.75 3.75h-5.732l-1.767 1.767v.732c0 1.25 1.25 2.5 2.5 2.5h6.25l3.75 3.75v-3.75c1.25 0 2.5-1.25 2.5-2.5v-5c0-1.25-1.25-2.5-2.5-2.5"/><path d="M37.523 41.275h6.25c1.25 0 2.5-1.25 2.5-2.5v-5c0-1.25-1.25-2.5-2.5-2.5h-10c-1.25 0-2.5 1.25-2.5 2.5v5c0 1.25 1.25 2.5 2.5 2.5v3.75l3.75-3.75zm-18.773-.051h-1.25v-6.25h1.25v6.25zm-2.5 0h-13.75v-1.25l13.75-3.75v5zm-6.579 6.059c-.081.321-.431.536-.76.451l-3.673-.936c-.334-.085-.536-.425-.451-.759l.403-1.583 4.864 1.326-.383 1.5zm6.579-13.559v1.25l-13.75 3.75-2.5-1.25v7.5l2.5-1.25 1.485.405-.409 1.601c-.255 1.001.352 2.024 1.354 2.279l3.673.935c.151.039.306.059.461.059.859 0 1.607-.581 1.819-1.411l.378-1.479 4.99 1.361v1.25l3.75 1.276v-17.45l-3.75 1.174zm3.75-17.474l-6.25-6.25h3.75l-5-5h2.5l-5-5-5 5h2.5l-5 5h3.75l-6.25 6.25h7.5v3.75h5v-3.75h7.5zm26.898-2.5c-1.381 0-2.5-1.12-2.5-2.5s1.119-2.5 2.5-2.5c1.38 0 2.5 1.12 2.5 2.5s-1.12 2.5-2.5 2.5m0-6.25c-2.067 0-3.75 1.683-3.75 3.75 0 1.104.489 2.087 1.25 2.775v5.975l2.5-2.5 2.5 2.5v-5.975c.761-.688 1.25-1.671 1.25-2.775 0-2.067-1.683-3.75-3.75-3.75"/><path d="M40.262 17.5h-5.864v-15h6.982l3.75 3.75h3.018v-.517l-5.732-5.732h-10.518v20h10.756l-2.346-2.45-.046-.05zm1.636-11.25h-6.25v1.25h6.25v-1.25zm0 2.5h-6.25v1.25h6.25v-1.25zm-6.25 3.75h6.25v-1.25h-6.25v1.25z"/></g></pattern></defs><g transform="matrix(1.25 0 0 -1.25 0 124.016)" fill="#2c3e50" fill-opacity=".322"><path d="M21.237 11.702h-1v5h1v-5zm-2 0h-11v1l11 3v-4zm-5.263-4.847c-.065-.257-.345-.429-.608-.361l-2.938.749c-.267.068-.429.34-.361.607l.322 1.266 3.891-1.061-.306-1.2zm5.263 10.847v-1l-11-3-2 1v-6l2 1 1.188-.324-.327-1.281c-.204-.801.282-1.619 1.083-1.823l2.938-.748c.121-.031.245-.047.369-.047.687 0 1.286.465 1.455 1.129l.302 1.183 3.992-1.089v-1l3-1.021v13.96l-3-.939z" fill="#2c3e50" fill-opacity=".322"/><path d="M22.237 56.575l-5 5h3l-4 4h2l-4 4-4-4h2l-4-4h3l-5-5h6v-3h4v3z"/><g fill="#2c3e50" fill-opacity=".322"><path d="M48.456 39.618h-1v-1c0-1.542-1.457-3-3-3h-4.586l-1.414-1.414v-.586c0-1 1-2 2-2h5l3-3v3c1 0 2 1 2 2v4c0 1-1 2-2 2"/><path d="M39.456 36.618h5c1 0 2 1 2 2v4c0 1-1 2-2 2h-8c-1 0-2-1-2-2v-4c0-1 1-2 2-2v-3z"/></g><path d="M46.955 83.532c-1.105 0-2 .896-2 2s.895 2 2 2c1.104 0 2-.896 2-2s-.896-2-2-2m0 5c-1.654 0-3-1.346-3-3 0-.883.391-1.67 1-2.22v-4.78l2 2 2-2v4.78c.609.55 1 1.337 1 2.22 0 1.654-1.346 3-3 3" fill="#2c3e50" fill-opacity=".322"/><path d="M41.647 80.532h-4.691v12h5.586l3-3h2.414v.414l-4.586 4.586h-8.414v-16h8.605l-1.877 1.96-.037.04z" fill="#2c3e50" fill-opacity=".322"/><path d="M42.955 89.532h-5v-1h5v1zm0-2h-5v-1h5v1zm-5-3h5v1h-5v-1z"/><path d="M76.568 61.371h-1v5h1v-5zm-2 0h-11v1l11 3v-4zm-5.263-4.847c-.065-.257-.345-.429-.608-.361l-2.938.749c-.267.068-.429.34-.361.607l.322 1.266 3.891-1.061-.306-1.2zm5.263 10.847v-1l-11-3-2 1v-6l2 1 1.188-.324-.327-1.281c-.204-.801.282-1.619 1.083-1.823l2.938-.748c.121-.031.245-.047.369-.047.687 0 1.286.465 1.455 1.129l.302 1.183 3.992-1.089v-1l3-1.021v13.96l-3-.939z" fill="#2c3e50" fill-opacity=".322"/><path d="M77.335 7.07l-5 5h3l-4 4h2l-4 4-4-4h2l-4-4h3l-5-5h6v-3h4v3h6z" fill="#2c3e50" fill-opacity=".322"/><g fill="#2c3e50" fill-opacity=".322"><path d="M104.324 88.39h-1v-1c0-1.542-1.457-3-3-3h-4.586l-1.414-1.414v-.586c0-1 1-2 2-2h5l3-3v3c1 0 2 1 2 2v4c0 1-1 2-2 2"/><path d="M95.324 85.39h5c1 0 2 1 2 2v4c0 1-1 2-2 2h-8c-1 0-2-1-2-2v-4c0-1 1-2 2-2v-3l3 3z"/></g><path d="M105.157 33.13c-1.105 0-2 .896-2 2s.895 2 2 2c1.104 0 2-.896 2-2s-.896-2-2-2m0 5c-1.654 0-3-1.346-3-3 0-.883.391-1.67 1-2.22v-4.78l2 2 2-2v4.78c.609.55 1 1.337 1 2.22 0 1.654-1.346 3-3 3" fill="#2c3e50" fill-opacity=".322"/><path d="M99.849 30.13h-4.691v12h5.586l3-3h2.414v.414l-4.586 4.586h-8.414v-16h8.605l-1.877 1.96-.037.04z" fill="#2c3e50" fill-opacity=".322"/><path d="M101.157 39.13h-5v-1h5v1zm0-2h-5v-1h5v1zm-5-3h5v1h-5v-1z"/></g></svg>